<svg t="1605773989480" class="icon" viewBox="0 0 1072 1024" version="1.1" xmlns="http://www.w3.org/2000/svg" p-id="1667" width="200" height="200"><path d="M534.625205 489.374795c-6.703764 0-15.08347-1.675941-21.787234-3.351882l-452.504092-162.566285c-16.759411-6.703764-28.490998-23.463175-28.490998-41.898527v-26.815057c0-18.435352 11.731588-35.194763 28.490998-41.898527l450.82815-160.890344c13.407529-5.027823 28.490998-5.027823 43.574469 0l447.476268 159.214403c20.111293 6.703764 31.842881 25.139116 31.84288 46.92635v20.111293c0 20.111293-13.407529 38.546645-31.84288 46.926351L556.412439 486.022913c-8.379705 1.675941-15.08347 3.351882-21.787234 3.351882zM226.252046 269.826514l308.373159 110.612111 308.373158-110.612111-308.373158-110.612111-308.373159 110.612111z" p-id="1668"></path><path d="M534.625205 724.006547c-6.703764 0-15.08347-1.675941-21.787234-3.351883L33.518822 548.032733v-115.639934l501.106383 181.001636 501.106383-181.001636v112.288052L556.412439 720.654664c-8.379705 1.675941-15.08347 3.351882-21.787234 3.351883z m13.407528-103.908347z" p-id="1669"></path><path d="M534.625205 958.638298c-6.703764 0-15.08347-1.675941-21.787234-3.351882L33.518822 782.664484v-115.639934l501.106383 181.001637 501.106383-181.001637v112.288052L556.412439 953.610475c-8.379705 3.351882-15.08347 5.027823-21.787234 5.027823z m13.407528-103.908347z" p-id="1670"></path></svg>
