<svg t="1605773130197" class="icon" viewBox="0 0 1024 1024" version="1.1" xmlns="http://www.w3.org/2000/svg" p-id="1537" width="200" height="200"><path d="M950.857143 548.571429h-73.142857V292.571429l-146.285715-146.285715H146.285714v731.428572h256v73.142857H146.285714a73.142857 73.142857 0 0 1-73.142857-73.142857V146.285714a73.142857 73.142857 0 0 1 73.142857-73.142857h621.714286l182.857143 182.857143v292.571429z m-446.976 146.285714H947.2v73.142857H507.611429l90.88 90.88L546.742857 910.628571 365.714286 729.6 546.742857 548.571429l51.712 51.712L503.881143 694.857143zM390.802286 247.442286l122.477714 130.779428 127.488-134.765714a34.816 34.816 0 0 1 50.614857-0.621714c13.824 14.372571 13.531429 37.961143-0.585143 52.662857l-178.724571 188.086857-122.477714-130.742857-101.376 109.714286a34.816 34.816 0 0 1-50.614858 0.585142c-13.824-14.409143-13.531429-37.997714 0.585143-52.662857l152.612572-163.035428z" p-id="1538"></path></svg>
